# xmcd CD database file
#
# Track frame offsets:
#	150
#	13145
#	27147
#	40410
#	55398
#	67793
#	81952
#	95415
#	108675
#	122788
#	136911
#	149976
#	163560
#	174923
#	187631
#	200147
#	211945
#	224976
#	236507
#	256985
#	271415
#
# Disc length: 3876 seconds
#
# Revision: 0
# Processed by: cddbd v1.5.2PL0 Copyright (c) Steve Scherf et al.
# Submitted via: CDex 1.70beta2
#
DISCID=3d0f2215
DTITLE=Various Artist - THE SLIDE GUITAR:BOTTLES,KNIVES and STEEL
DYEAR=2008
DGENRE=Blues
TTITLE0=Weaver and Beasley - Bottleneck Blues
TTITLE1=Barbecue Bob - Untitled
TTITLE2=Blind Willie Johnson - God Don't Never Change
TTITLE3=Blind Willie Johnson - Dark Was The Night,Cold Was The Ground
TTITLE4=Weaver and Beasley - St.Louis Blues
TTITLE5=Ruth Willis and Blind Willie McTell - Experience Blues
TTITLE6=Sylvester Weaver - Guitar Rag
TTITLE7=Tampa Red and Georgia Tom - You Can't Get That Stuff No More
TTITLE8=Charlie Patton - High Sherriff Blues
TTITLE9=Blind Boy Fuller - Homesick and Lonesome Blues
TTITLE10=Leadbelly - Packin Trunk Blues
TTITLE11=Casey Bill Weldon - I Believe I'll Make A Change
TTITLE12=Buddy Woods - Dont Sell It (Don't Give It Away)
TTITLE13=Buddy Woods - Muscat Hill Blues
TTITLE14=Robert Johnson - Traveling Riverside Blues
TTITLE15=Bukka White - Bukka's Jitterbug Swing
TTITLE16=Bukka White - Special Stream Line
TTITLE17=Sister O.M.Terrell - Swing Low, Chariot
TTITLE18=Son House - Pearline
TTITLE19=Leadbelly - Black Snake Moan
TTITLE20=Son House - Death Letter Blues
EXTD=YEAR: 2008
EXTT0=
EXTT1=
EXTT2=
EXTT3=
EXTT4=
EXTT5=
EXTT6=
EXTT7=
EXTT8=
EXTT9=
EXTT10=
EXTT11=
EXTT12=
EXTT13=
EXTT14=
EXTT15=
EXTT16=
EXTT17=
EXTT18=
EXTT19=
EXTT20=
PLAYORDER=
